<?xml version="1.0" encoding="UTF-8" standalone="no"?>
<svg
   xmlns:dc="http://purl.org/dc/elements/1.1/"
   xmlns:cc="http://creativecommons.org/ns#"
   xmlns:rdf="http://www.w3.org/1999/02/22-rdf-syntax-ns#"
   xmlns:svg="http://www.w3.org/2000/svg"
   xmlns="http://www.w3.org/2000/svg"
   viewBox="0 0 609.33331 556"
   height="556"
   width="609.33331"
   xml:space="preserve"
   id="svg2"
   version="1.1"><metadata
     id="metadata8"><rdf:RDF><cc:Work
         rdf:about=""><dc:format>image/svg+xml</dc:format><dc:type
           rdf:resource="http://purl.org/dc/dcmitype/StillImage" /></cc:Work></rdf:RDF></metadata><defs
     id="defs6"><clipPath
       id="clipPath20"
       clipPathUnits="userSpaceOnUse"><path
         id="path18"
         d="M 0,0 H 457 V 417 H 0 Z" /></clipPath></defs><g
     transform="matrix(1.3333333,0,0,-1.3333333,0,556)"
     id="g10"><g
       id="g12" /><g
       id="g14"><g
         clip-path="url(#clipPath20)"
         id="g16"><g
           transform="matrix(1,0,0,-1,16,401)"
           id="g22"><path
             id="path24"
             style="fill:none;stroke:#000000;stroke-width:1;stroke-linecap:round;stroke-linejoin:round;stroke-miterlimit:10;stroke-dasharray:none;stroke-opacity:0"
             d="m -6,-15 h 437 c 4.9706,0 9,4.02944 9,9 v 397 c 0,4.9706 -4.0294,9 -9,9 H -6 c -4.97056,0 -9,-4.0294 -9,-9 V -6 c 0,-4.97056 4.02944,-9 9,-9 z" /></g><path
           id="path26"
           style="fill:#ffff00;fill-opacity:1;fill-rule:nonzero;stroke:none"
           d="m 42.25,401 h 122.5 c 14.49,0 26.25,-13.44 26.25,-30 0,-16.56 -11.76,-30 -26.25,-30 H 42.25 C 27.76,341 16,354.44 16,371 c 0,16.56 11.76,30 26.25,30 z" /><g
           transform="matrix(1,0,0,-1,16,401)"
           id="g28"><path
             id="path30"
             style="fill:none;stroke:#000000;stroke-width:1;stroke-linecap:round;stroke-linejoin:round;stroke-miterlimit:10;stroke-dasharray:none;stroke-opacity:1"
             d="m 26.25,0 h 122.5 C 163.24,0 175,13.44 175,30 175,46.56 163.24,60 148.75,60 H 26.25 C 11.76,60 0,46.56 0,30 0,13.44 11.76,0 26.25,0 Z" /></g><g
           transform="matrix(1,0,0,-1,16,401)"
           id="g32"><text
             id="text36"
             style="font-variant:normal;font-weight:normal;font-size:16px;font-family:AndaleMono;-inkscape-font-specification:AndaleMono;writing-mode:lr-tb;fill:#000000;fill-opacity:1;fill-rule:nonzero;stroke:none"
             transform="translate(49.09375,24.5)"><tspan
               id="tspan34"
               y="0"
               x="0 9.6015997 19.203199 28.8048 38.406399 48.007999 57.6096 67.211197">Module 1</tspan></text>
</g><g
           transform="matrix(1,0,0,-1,16,401)"
           id="g38"><text
             id="text42"
             style="font-variant:normal;font-weight:normal;font-size:16px;font-family:AndaleMono;-inkscape-font-specification:AndaleMono;writing-mode:lr-tb;fill:#000000;fill-opacity:1;fill-rule:nonzero;stroke:none"
             transform="translate(53.89453,47.5)"><tspan
               id="tspan40"
               y="0"
               x="0 9.6015997 19.203199 28.8048 38.406399 48.007999 57.6096">Entry A</tspan></text>
</g><path
           id="path44"
           style="fill:#00ff00;fill-opacity:1;fill-rule:nonzero;stroke:none"
           d="m 42.25,151 h 122.5 C 179.24,151 191,137.56 191,121 191,104.44 179.24,91 164.75,91 H 42.25 C 27.76,91 16,104.44 16,121 c 0,16.56 11.76,30 26.25,30 z" /><g
           transform="matrix(1,0,0,-1,16,401)"
           id="g46"><path
             id="path48"
             style="fill:none;stroke:#000000;stroke-width:1;stroke-linecap:round;stroke-linejoin:round;stroke-miterlimit:10;stroke-dasharray:none;stroke-opacity:1"
             d="m 26.25,250 h 122.5 c 14.49,0 26.25,13.44 26.25,30 0,16.56 -11.76,30 -26.25,30 H 26.25 C 11.76,310 0,296.56 0,280 0,263.44 11.76,250 26.25,250 Z" /></g><g
           transform="matrix(1,0,0,-1,16,401)"
           id="g50"><text
             id="text54"
             style="font-variant:normal;font-weight:normal;font-size:16px;font-family:AndaleMono;-inkscape-font-specification:AndaleMono;writing-mode:lr-tb;fill:#000000;fill-opacity:1;fill-rule:nonzero;stroke:none"
             transform="translate(49.09375,274.5)"><tspan
               id="tspan52"
               y="0"
               x="0 9.6015997 19.203199 28.8048 38.406399 48.007999 57.6096 67.211197">Module 4</tspan></text>
</g><g
           transform="matrix(1,0,0,-1,16,401)"
           id="g56"><text
             id="text60"
             style="font-variant:normal;font-weight:normal;font-size:16px;font-family:AndaleMono;-inkscape-font-specification:AndaleMono;writing-mode:lr-tb;fill:#000000;fill-opacity:1;fill-rule:nonzero;stroke:none"
             transform="translate(25.08984,297.5)"><tspan
               id="tspan58"
               y="0"
               x="0 9.6015997 19.203199 28.8048 38.406399 48.007999 57.6096 67.211197 76.812798 86.414398 96.015999 105.6176 115.2192">Dynamic Entry</tspan></text>
</g><path
           id="path62"
           style="fill:#00ffff;fill-opacity:1;fill-rule:nonzero;stroke:none"
           d="m 292.25,201 h 122.5 c 14.49,0 26.25,-13.44 26.25,-30 0,-16.56 -11.76,-30 -26.25,-30 h -122.5 c -14.49,0 -26.25,13.44 -26.25,30 0,16.56 11.76,30 26.25,30 z" /><g
           transform="matrix(1,0,0,-1,16,401)"
           id="g64"><path
             id="path66"
             style="fill:none;stroke:#000000;stroke-width:1;stroke-linecap:round;stroke-linejoin:round;stroke-miterlimit:10;stroke-dasharray:none;stroke-opacity:1"
             d="m 276.25,200 h 122.5 c 14.49,0 26.25,13.44 26.25,30 0,16.56 -11.76,30 -26.25,30 H 276.25 C 261.76,260 250,246.56 250,230 c 0,-16.56 11.76,-30 26.25,-30 z" /></g><g
           transform="matrix(1,0,0,-1,16,401)"
           id="g68"><text
             id="text72"
             style="font-variant:normal;font-weight:normal;font-size:16px;font-family:AndaleMono;-inkscape-font-specification:AndaleMono;writing-mode:lr-tb;fill:#000000;fill-opacity:1;fill-rule:nonzero;stroke:none"
             transform="translate(299.0938,224.5)"><tspan
               id="tspan70"
               y="0"
               x="0 9.6015997 19.203199 28.8048 38.406399 48.007999 57.6096 67.211197">Module 3</tspan></text>
</g><g
           transform="matrix(1,0,0,-1,16,401)"
           id="g74"><text
             id="text78"
             style="font-variant:normal;font-weight:normal;font-size:16px;font-family:AndaleMono;-inkscape-font-specification:AndaleMono;writing-mode:lr-tb;fill:#000000;fill-opacity:1;fill-rule:nonzero;stroke:none"
             transform="translate(299.0938,247.5)"><tspan
               id="tspan76"
               y="0"
               x="0 9.6015997 19.203199 28.8048 38.406399 48.007999 57.6096 67.211197">Module 2</tspan></text>
</g><path
           id="path80"
           style="fill:#0000ff;fill-opacity:1;fill-rule:nonzero;stroke:none"
           d="m 292.25,401 h 122.5 c 14.49,0 26.25,-8.064 26.25,-18 0,-9.936 -11.76,-18 -26.25,-18 h -122.5 c -14.49,0 -26.25,8.064 -26.25,18 0,9.936 11.76,18 26.25,18 z" /><g
           transform="matrix(1,0,0,-1,16,401)"
           id="g82"><path
             id="path84"
             style="fill:none;stroke:#000000;stroke-width:1;stroke-linecap:round;stroke-linejoin:round;stroke-miterlimit:10;stroke-dasharray:none;stroke-opacity:1"
             d="m 276.25,0 h 122.5 C 413.24,0 425,8.064 425,18 c 0,9.936 -11.76,18 -26.25,18 H 276.25 C 261.76,36 250,27.936 250,18 250,8.064 261.76,0 276.25,0 Z" /></g><g
           transform="matrix(1,0,0,-1,16,401)"
           id="g86"><text
             id="text90"
             style="font-variant:normal;font-weight:normal;font-size:16px;font-family:AndaleMono;-inkscape-font-specification:AndaleMono;writing-mode:lr-tb;fill:#ffffff;fill-opacity:1;fill-rule:nonzero;stroke:none"
             transform="translate(303.8945,24)"><tspan
               id="tspan88"
               y="0"
               x="0 9.6015997 19.203199 28.8048 38.406399 48.007999 57.6096">Entry B</tspan></text>
</g><g
           transform="matrix(1,0,0,-1,16,401)"
           id="g92"><path
             id="path94"
             style="fill:none;stroke:#000000;stroke-width:1;stroke-linecap:round;stroke-linejoin:round;stroke-miterlimit:10;stroke-dasharray:none;stroke-opacity:1"
             d="M 174.7459,25.8122 240.819,22.64069" /></g><path
           id="path96"
           style="fill:#000000;fill-opacity:1;fill-rule:nonzero;stroke:none"
           d="m 264.8098,378.7429 -8.1347,2.613 0.2877,-5.9931 z" /><g
           transform="matrix(1,0,0,-1,16,401)"
           id="g98"><path
             id="path100"
             style="fill:none;stroke:#000000;stroke-width:1;stroke-linecap:butt;stroke-linejoin:miter;stroke-miterlimit:10;stroke-dasharray:none;stroke-opacity:1"
             d="m 248.8098,22.25713 -8.1347,-2.61299 0.2877,5.9931 z" /></g><g
           transform="matrix(1,0,0,-1,16,401)"
           id="g102"><path
             id="path104"
             style="fill:none;stroke:#000000;stroke-width:1;stroke-linecap:round;stroke-linejoin:round;stroke-miterlimit:10;stroke-dasharray:4, 4;stroke-dashoffset:0;stroke-opacity:1"
             d="M 87.5,60 V 240.1" /></g><path
           id="path106"
           style="fill:#000000;fill-opacity:1;fill-rule:nonzero;stroke:none"
           d="m 103.5,152.9 3,8 h -6 z" /><g
           transform="matrix(1,0,0,-1,16,401)"
           id="g108"><path
             id="path110"
             style="fill:none;stroke:#000000;stroke-width:1;stroke-linecap:butt;stroke-linejoin:miter;stroke-miterlimit:10;stroke-dasharray:none;stroke-opacity:1"
             d="m 87.5,248.1 3,-8 h -6 z" /></g><g
           transform="matrix(1,0,0,-1,16,401)"
           id="g112"><path
             id="path114"
             style="fill:none;stroke:#000000;stroke-width:1;stroke-linecap:round;stroke-linejoin:round;stroke-miterlimit:10;stroke-dasharray:none;stroke-opacity:1"
             d="M 337.5,36 V 190.1" /></g><path
           id="path116"
           style="fill:#000000;fill-opacity:1;fill-rule:nonzero;stroke:none"
           d="m 353.5,202.9 3,8 h -6 z" /><g
           transform="matrix(1,0,0,-1,16,401)"
           id="g118"><path
             id="path120"
             style="fill:none;stroke:#000000;stroke-width:1;stroke-linecap:butt;stroke-linejoin:miter;stroke-miterlimit:10;stroke-dasharray:none;stroke-opacity:1"
             d="m 337.5,198.1 3,-8 h -6 z" /></g><g
           transform="matrix(1,0,0,-1,16,401)"
           id="g122"><path
             id="path124"
             style="fill:none;stroke:#000000;stroke-width:1;stroke-linecap:round;stroke-linejoin:round;stroke-miterlimit:10;stroke-dasharray:none;stroke-opacity:1"
             d="M 125,60 292.2694,193.8155" /></g><path
           id="path126"
           style="fill:#000000;fill-opacity:1;fill-rule:nonzero;stroke:none"
           d="m 314.5163,202.1869 -4.3728,7.3402 -3.7482,-4.6852 z" /><g
           transform="matrix(1,0,0,-1,16,401)"
           id="g128"><path
             id="path130"
             style="fill:none;stroke:#000000;stroke-width:1;stroke-linecap:butt;stroke-linejoin:miter;stroke-miterlimit:10;stroke-dasharray:none;stroke-opacity:1"
             d="m 298.5163,198.8131 -4.3728,-7.3402 -3.7482,4.6852 z" /></g><g
           transform="matrix(1,0,0,-1,16,401)"
           id="g132"><path
             id="path134"
             style="fill:none;stroke:#000000;stroke-width:1;stroke-linecap:round;stroke-linejoin:round;stroke-miterlimit:10;stroke-dasharray:none;stroke-opacity:1"
             d="M 170.6025,263.3795 244.6898,248.562" /></g><path
           id="path136"
           style="fill:#000000;fill-opacity:1;fill-rule:nonzero;stroke:none"
           d="m 268.5344,154.0069 -8.433,1.3728 1.1767,-5.8835 z" /><g
           transform="matrix(1,0,0,-1,16,401)"
           id="g138"><path
             id="path140"
             style="fill:none;stroke:#000000;stroke-width:1;stroke-linecap:butt;stroke-linejoin:miter;stroke-miterlimit:10;stroke-dasharray:none;stroke-opacity:1"
             d="m 252.5344,246.9931 -8.433,-1.3728 1.1767,5.8835 z" /></g></g></g></g></svg>