<?xml version="1.0" encoding="UTF-8" standalone="no"?>
<svg
   xmlns:dc="http://purl.org/dc/elements/1.1/"
   xmlns:cc="http://creativecommons.org/ns#"
   xmlns:rdf="http://www.w3.org/1999/02/22-rdf-syntax-ns#"
   xmlns:svg="http://www.w3.org/2000/svg"
   xmlns="http://www.w3.org/2000/svg"
   viewBox="0 0 609.33331 556"
   height="556"
   width="609.33331"
   xml:space="preserve"
   id="svg2"
   version="1.1"><metadata
     id="metadata8"><rdf:RDF><cc:Work
         rdf:about=""><dc:format>image/svg+xml</dc:format><dc:type
           rdf:resource="http://purl.org/dc/dcmitype/StillImage" /></cc:Work></rdf:RDF></metadata><defs
     id="defs6"><clipPath
       id="clipPath20"
       clipPathUnits="userSpaceOnUse"><path
         id="path18"
         d="M 0,0 H 457 V 417 H 0 Z" /></clipPath></defs><g
     transform="matrix(1.3333333,0,0,-1.3333333,0,556)"
     id="g10"><g
       id="g12" /><g
       id="g14"><g
         clip-path="url(#clipPath20)"
         id="g16"><g
           transform="matrix(1,0,0,-1,16,401)"
           id="g22"><path
             id="path24"
             style="fill:none;stroke:#000000;stroke-width:1;stroke-linecap:round;stroke-linejoin:round;stroke-miterlimit:10;stroke-dasharray:none;stroke-opacity:0"
             d="m -6,-15 h 437 c 4.9706,0 9,4.02944 9,9 v 397 c 0,4.9706 -4.0294,9 -9,9 H -6 c -4.97056,0 -9,-4.0294 -9,-9 V -6 c 0,-4.97056 4.02944,-9 9,-9 z" /></g><path
           id="path26"
           style="fill:#ffff00;fill-opacity:1;fill-rule:nonzero;stroke:none"
           d="m 42.25,401 h 122.5 c 14.49,0 26.25,-8.064 26.25,-18 0,-9.936 -11.76,-18 -26.25,-18 H 42.25 C 27.76,365 16,373.064 16,383 c 0,9.936 11.76,18 26.25,18 z" /><g
           transform="matrix(1,0,0,-1,16,401)"
           id="g28"><path
             id="path30"
             style="fill:none;stroke:#000000;stroke-width:1;stroke-linecap:round;stroke-linejoin:round;stroke-miterlimit:10;stroke-dasharray:none;stroke-opacity:1"
             d="m 26.25,0 h 122.5 C 163.24,0 175,8.064 175,18 c 0,9.936 -11.76,18 -26.25,18 H 26.25 C 11.76,36 0,27.936 0,18 0,8.064 11.76,0 26.25,0 Z" /></g><g
           transform="matrix(1,0,0,-1,16,401)"
           id="g32"><text
             id="text36"
             style="font-variant:normal;font-weight:normal;font-size:16px;font-family:AndaleMono;-inkscape-font-specification:AndaleMono;writing-mode:lr-tb;fill:#000000;fill-opacity:1;fill-rule:nonzero;stroke:none"
             transform="translate(53.89453,24)"><tspan
               id="tspan34"
               y="0"
               x="0 9.6015997 19.203199 28.8048 38.406399 48.007999 57.6096">Entry A</tspan></text>
</g><path
           id="path38"
           style="fill:#ffff00;fill-opacity:1;fill-rule:nonzero;stroke:none"
           d="m 42.25,301 h 122.5 c 14.49,0 26.25,-8.064 26.25,-18 0,-9.936 -11.76,-18 -26.25,-18 H 42.25 C 27.76,265 16,273.064 16,283 c 0,9.936 11.76,18 26.25,18 z" /><g
           transform="matrix(1,0,0,-1,16,401)"
           id="g40"><path
             id="path42"
             style="fill:none;stroke:#000000;stroke-width:1;stroke-linecap:round;stroke-linejoin:round;stroke-miterlimit:10;stroke-dasharray:none;stroke-opacity:1"
             d="m 26.25,100 h 122.5 c 14.49,0 26.25,8.064 26.25,18 0,9.936 -11.76,18 -26.25,18 H 26.25 C 11.76,136 0,127.936 0,118 0,108.064 11.76,100 26.25,100 Z" /></g><g
           transform="matrix(1,0,0,-1,16,401)"
           id="g44"><text
             id="text48"
             style="font-variant:normal;font-weight:normal;font-size:16px;font-family:AndaleMono;-inkscape-font-specification:AndaleMono;writing-mode:lr-tb;fill:#000000;fill-opacity:1;fill-rule:nonzero;stroke:none"
             transform="translate(49.09375,124)"><tspan
               id="tspan46"
               y="0"
               x="0 9.6015997 19.203199 28.8048 38.406399 48.007999 57.6096 67.211197">Module 1</tspan></text>
</g><path
           id="path50"
           style="fill:#ffff00;fill-opacity:1;fill-rule:nonzero;stroke:none"
           d="m 292.25,101 h 122.5 C 429.24,101 441,92.936 441,83 441,73.064 429.24,65 414.75,65 H 292.25 C 277.76,65 266,73.064 266,83 c 0,9.936 11.76,18 26.25,18 z" /><g
           transform="matrix(1,0,0,-1,16,401)"
           id="g52"><path
             id="path54"
             style="fill:none;stroke:#000000;stroke-width:1;stroke-linecap:round;stroke-linejoin:round;stroke-miterlimit:10;stroke-dasharray:none;stroke-opacity:1"
             d="m 276.25,300 h 122.5 c 14.49,0 26.25,8.064 26.25,18 0,9.936 -11.76,18 -26.25,18 H 276.25 C 261.76,336 250,327.936 250,318 c 0,-9.936 11.76,-18 26.25,-18 z" /></g><g
           transform="matrix(1,0,0,-1,16,401)"
           id="g56"><text
             id="text60"
             style="font-variant:normal;font-weight:normal;font-size:16px;font-family:AndaleMono;-inkscape-font-specification:AndaleMono;writing-mode:lr-tb;fill:#000000;fill-opacity:1;fill-rule:nonzero;stroke:none"
             transform="translate(299.0938,324)"><tspan
               id="tspan58"
               y="0"
               x="0 9.6015997 19.203199 28.8048 38.406399 48.007999 57.6096 67.211197">Module 3</tspan></text>
</g><path
           id="path62"
           style="fill:#ffffff;fill-opacity:1;fill-rule:nonzero;stroke:none"
           d="m 42.25,51 h 122.5 C 179.24,51 191,42.936 191,33 191,23.064 179.24,15 164.75,15 H 42.25 C 27.76,15 16,23.064 16,33 c 0,9.936 11.76,18 26.25,18 z" /><g
           transform="matrix(1,0,0,-1,16,401)"
           id="g64"><path
             id="path66"
             style="fill:none;stroke:#000000;stroke-width:1;stroke-linecap:round;stroke-linejoin:round;stroke-miterlimit:10;stroke-dasharray:none;stroke-opacity:1"
             d="m 26.25,350 h 122.5 c 14.49,0 26.25,8.064 26.25,18 0,9.936 -11.76,18 -26.25,18 H 26.25 C 11.76,386 0,377.936 0,368 0,358.064 11.76,350 26.25,350 Z" /></g><g
           transform="matrix(1,0,0,-1,16,401)"
           id="g68"><text
             id="text72"
             style="font-variant:normal;font-weight:normal;font-size:16px;font-family:AndaleMono;-inkscape-font-specification:AndaleMono;writing-mode:lr-tb;fill:#000000;fill-opacity:1;fill-rule:nonzero;stroke:none"
             transform="translate(49.09375,374)"><tspan
               id="tspan70"
               y="0"
               x="0 9.6015997 19.203199 28.8048 38.406399 48.007999 57.6096 67.211197">Module 4</tspan></text>
</g><path
           id="path74"
           style="fill:#00ff00;fill-opacity:1;fill-rule:nonzero;stroke:none"
           d="m 42.25,151 h 122.5 c 14.49,0 26.25,-8.064 26.25,-18 0,-9.936 -11.76,-18 -26.25,-18 H 42.25 C 27.76,115 16,123.064 16,133 c 0,9.936 11.76,18 26.25,18 z" /><g
           transform="matrix(1,0,0,-1,16,401)"
           id="g76"><path
             id="path78"
             style="fill:none;stroke:#000000;stroke-width:1;stroke-linecap:round;stroke-linejoin:round;stroke-miterlimit:10;stroke-dasharray:none;stroke-opacity:1"
             d="m 26.25,250 h 122.5 c 14.49,0 26.25,8.064 26.25,18 0,9.936 -11.76,18 -26.25,18 H 26.25 C 11.76,286 0,277.936 0,268 0,258.064 11.76,250 26.25,250 Z" /></g><g
           transform="matrix(1,0,0,-1,16,401)"
           id="g80"><text
             id="text84"
             style="font-variant:normal;font-weight:normal;font-size:16px;font-family:AndaleMono;-inkscape-font-specification:AndaleMono;writing-mode:lr-tb;fill:#000000;fill-opacity:1;fill-rule:nonzero;stroke:none"
             transform="translate(25.08984,274)"><tspan
               id="tspan82"
               y="0"
               x="0 9.6015997 19.203199 28.8048 38.406399 48.007999 57.6096 67.211197 76.812798 86.414398 96.015999 105.6176 115.2192">Dynamic Entry</tspan></text>
</g><path
           id="path86"
           style="fill:#ffff00;fill-opacity:1;fill-rule:nonzero;stroke:none"
           d="m 292.25,201 h 122.5 c 14.49,0 26.25,-8.064 26.25,-18 0,-9.936 -11.76,-18 -26.25,-18 h -122.5 c -14.49,0 -26.25,8.064 -26.25,18 0,9.936 11.76,18 26.25,18 z" /><g
           transform="matrix(1,0,0,-1,16,401)"
           id="g88"><path
             id="path90"
             style="fill:none;stroke:#000000;stroke-width:1;stroke-linecap:round;stroke-linejoin:round;stroke-miterlimit:10;stroke-dasharray:none;stroke-opacity:1"
             d="m 276.25,200 h 122.5 c 14.49,0 26.25,8.064 26.25,18 0,9.936 -11.76,18 -26.25,18 H 276.25 C 261.76,236 250,227.936 250,218 c 0,-9.936 11.76,-18 26.25,-18 z" /></g><g
           transform="matrix(1,0,0,-1,16,401)"
           id="g92"><text
             id="text96"
             style="font-variant:normal;font-weight:normal;font-size:16px;font-family:AndaleMono;-inkscape-font-specification:AndaleMono;writing-mode:lr-tb;fill:#000000;fill-opacity:1;fill-rule:nonzero;stroke:none"
             transform="translate(299.0938,224)"><tspan
               id="tspan94"
               y="0"
               x="0 9.6015997 19.203199 28.8048 38.406399 48.007999 57.6096 67.211197">Module 2</tspan></text>
</g><path
           id="path98"
           style="fill:#0000ff;fill-opacity:1;fill-rule:nonzero;stroke:none"
           d="m 292.25,401 h 122.5 c 14.49,0 26.25,-8.064 26.25,-18 0,-9.936 -11.76,-18 -26.25,-18 h -122.5 c -14.49,0 -26.25,8.064 -26.25,18 0,9.936 11.76,18 26.25,18 z" /><g
           transform="matrix(1,0,0,-1,16,401)"
           id="g100"><path
             id="path102"
             style="fill:none;stroke:#000000;stroke-width:1;stroke-linecap:round;stroke-linejoin:round;stroke-miterlimit:10;stroke-dasharray:none;stroke-opacity:1"
             d="m 276.25,0 h 122.5 C 413.24,0 425,8.064 425,18 c 0,9.936 -11.76,18 -26.25,18 H 276.25 C 261.76,36 250,27.936 250,18 250,8.064 261.76,0 276.25,0 Z" /></g><g
           transform="matrix(1,0,0,-1,16,401)"
           id="g104"><text
             id="text108"
             style="font-variant:normal;font-weight:normal;font-size:16px;font-family:AndaleMono;-inkscape-font-specification:AndaleMono;writing-mode:lr-tb;fill:#ffffff;fill-opacity:1;fill-rule:nonzero;stroke:none"
             transform="translate(303.8945,24)"><tspan
               id="tspan106"
               y="0"
               x="0 9.6015997 19.203199 28.8048 38.406399 48.007999 57.6096">Entry B</tspan></text>
</g><g
           transform="matrix(1,0,0,-1,16,401)"
           id="g110"><path
             id="path112"
             style="fill:none;stroke:#000000;stroke-width:1;stroke-linecap:round;stroke-linejoin:round;stroke-miterlimit:10;stroke-dasharray:none;stroke-opacity:1"
             d="M 87.5,36 V 90.1" /></g><path
           id="path114"
           style="fill:#000000;fill-opacity:1;fill-rule:nonzero;stroke:none"
           d="m 103.5,302.9 3,8 h -6 z" /><g
           transform="matrix(1,0,0,-1,16,401)"
           id="g116"><path
             id="path118"
             style="fill:none;stroke:#000000;stroke-width:1;stroke-linecap:butt;stroke-linejoin:miter;stroke-miterlimit:10;stroke-dasharray:none;stroke-opacity:1"
             d="m 87.5,98.1 3,-8 h -6 z" /></g><g
           transform="matrix(1,0,0,-1,16,401)"
           id="g120"><path
             id="path122"
             style="fill:none;stroke:#000000;stroke-width:1;stroke-linecap:round;stroke-linejoin:round;stroke-miterlimit:10;stroke-dasharray:none;stroke-opacity:1"
             d="m 175,18 h 65.1" /></g><path
           id="path124"
           style="fill:#000000;fill-opacity:1;fill-rule:nonzero;stroke:none"
           d="m 264.1,383 -8,3 v -6 z" /><g
           transform="matrix(1,0,0,-1,16,401)"
           id="g126"><path
             id="path128"
             style="fill:none;stroke:#000000;stroke-width:1;stroke-linecap:butt;stroke-linejoin:miter;stroke-miterlimit:10;stroke-dasharray:none;stroke-opacity:1"
             d="m 248.1,18 -8,-3 v 6 z" /></g><g
           transform="matrix(1,0,0,-1,16,401)"
           id="g130"><path
             id="path132"
             style="fill:none;stroke:#000000;stroke-width:1;stroke-linecap:round;stroke-linejoin:round;stroke-miterlimit:10;stroke-dasharray:4, 4;stroke-dashoffset:0;stroke-opacity:1"
             d="M 87.5,136 V 240.1" /></g><path
           id="path134"
           style="fill:#000000;fill-opacity:1;fill-rule:nonzero;stroke:none"
           d="m 103.5,152.9 3,8 h -6 z" /><g
           transform="matrix(1,0,0,-1,16,401)"
           id="g136"><path
             id="path138"
             style="fill:none;stroke:#000000;stroke-width:1;stroke-linecap:butt;stroke-linejoin:miter;stroke-miterlimit:10;stroke-dasharray:none;stroke-opacity:1"
             d="m 87.5,248.1 3,-8 h -6 z" /></g><g
           transform="matrix(1,0,0,-1,16,401)"
           id="g140"><path
             id="path142"
             style="fill:none;stroke:#000000;stroke-width:1;stroke-linecap:round;stroke-linejoin:round;stroke-miterlimit:10;stroke-dasharray:none;stroke-opacity:1"
             d="m 87.5,286 v 54.1" /></g><path
           id="path144"
           style="fill:#000000;fill-opacity:1;fill-rule:nonzero;stroke:none"
           d="m 103.5,52.9 3,8 h -6 z" /><g
           transform="matrix(1,0,0,-1,16,401)"
           id="g146"><path
             id="path148"
             style="fill:none;stroke:#000000;stroke-width:1;stroke-linecap:butt;stroke-linejoin:miter;stroke-miterlimit:10;stroke-dasharray:none;stroke-opacity:1"
             d="m 87.5,348.1 3,-8 h -6 z" /></g><g
           transform="matrix(1,0,0,-1,16,401)"
           id="g150"><path
             id="path152"
             style="fill:none;stroke:#000000;stroke-width:1;stroke-linecap:round;stroke-linejoin:round;stroke-miterlimit:10;stroke-dasharray:none;stroke-opacity:1"
             d="m 337.5,236 v 54.1" /></g><path
           id="path154"
           style="fill:#000000;fill-opacity:1;fill-rule:nonzero;stroke:none"
           d="m 353.5,102.9 3,8 h -6 z" /><g
           transform="matrix(1,0,0,-1,16,401)"
           id="g156"><path
             id="path158"
             style="fill:none;stroke:#000000;stroke-width:1;stroke-linecap:butt;stroke-linejoin:miter;stroke-miterlimit:10;stroke-dasharray:none;stroke-opacity:1"
             d="m 337.5,298.1 3,-8 h -6 z" /></g><g
           transform="matrix(1,0,0,-1,16,401)"
           id="g160"><path
             id="path162"
             style="fill:none;stroke:#000000;stroke-width:1;stroke-linecap:round;stroke-linejoin:round;stroke-miterlimit:10;stroke-dasharray:none;stroke-opacity:1"
             d="M 337.5,36 V 190.1" /></g><path
           id="path164"
           style="fill:#000000;fill-opacity:1;fill-rule:nonzero;stroke:none"
           d="m 353.5,202.9 3,8 h -6 z" /><g
           transform="matrix(1,0,0,-1,16,401)"
           id="g166"><path
             id="path168"
             style="fill:none;stroke:#000000;stroke-width:1;stroke-linecap:butt;stroke-linejoin:miter;stroke-miterlimit:10;stroke-dasharray:none;stroke-opacity:1"
             d="m 337.5,198.1 3,-8 h -6 z" /></g><g
           transform="matrix(1,0,0,-1,16,401)"
           id="g170"><path
             id="path172"
             style="fill:none;stroke:#000000;stroke-width:1;stroke-linecap:round;stroke-linejoin:round;stroke-miterlimit:10;stroke-dasharray:none;stroke-opacity:1"
             d="m 132.5,136 150.8081,60.3232" /></g><path
           id="path174"
           style="fill:#000000;fill-opacity:1;fill-rule:nonzero;stroke:none"
           d="m 306.7359,201.7056 -6.3136,5.7566 -2.2284,-5.5709 z" /><g
           transform="matrix(1,0,0,-1,16,401)"
           id="g176"><path
             id="path178"
             style="fill:none;stroke:#000000;stroke-width:1;stroke-linecap:butt;stroke-linejoin:miter;stroke-miterlimit:10;stroke-dasharray:none;stroke-opacity:1"
             d="m 290.7359,199.2944 -6.3136,-5.7566 -2.2284,5.5709 z" /></g><g
           transform="matrix(1,0,0,-1,16,401)"
           id="g180"><path
             id="path182"
             style="fill:none;stroke:#000000;stroke-width:1;stroke-linecap:round;stroke-linejoin:round;stroke-miterlimit:10;stroke-dasharray:none;stroke-opacity:1"
             d="M 117.5,350 299.0108,241.0935" /></g><path
           id="path184"
           style="fill:#000000;fill-opacity:1;fill-rule:nonzero;stroke:none"
           d="m 321.8708,164.0225 -8.4035,-1.5435 3.087,-5.145 z" /><g
           transform="matrix(1,0,0,-1,16,401)"
           id="g186"><path
             id="path188"
             style="fill:none;stroke:#000000;stroke-width:1;stroke-linecap:butt;stroke-linejoin:miter;stroke-miterlimit:10;stroke-dasharray:none;stroke-opacity:1"
             d="m 305.8708,236.9775 -8.4035,1.5435 3.087,5.145 z" /></g></g></g></g></svg>